<?xml version="1.0" standalone="no"?>
<!DOCTYPE svg PUBLIC "-//W3C//DTD SVG 1.1//EN" "http://www.w3.org/Graphics/SVG/1.1/DTD/svg11.dtd">
<svg xmlns="http://www.w3.org/2000/svg">
<metadata>Generated by Fontastic.me</metadata>
<defs>
<font id="ncsu-icons" horiz-adv-x="512">
<font-face font-family="ncsu-icons" units-per-em="512" ascent="480" descent="-32"/>
<missing-glyph horiz-adv-x="512" />

<glyph glyph-name="double-arrow" unicode="&#98;" d="M84 443l-45-45 144-143-144-143 45-45 188 188z m200 0l-45-45 144-143-144-143 45-45 188 188z"/>
<glyph glyph-name="left-arrow-nobkgrnd-1" unicode="&#102;" d="M176 207l146-146 48 49-145 146 145 146-48 49-195-195z"/>
<glyph glyph-name="right-arrow-nobkgrnd-1" unicode="&#105;" d="M336 305l-146 146-48-49 145-146-145-146 48-49 195 195z"/>
<glyph glyph-name="search-nobkgrnd" unicode="&#107;" d="M446 112l-114 115c15 23 23 50 23 78 0 38-15 75-43 102-27 27-63 42-102 42-39 0-75-15-102-42-28-27-43-64-43-102 0-39 15-75 43-103 27-27 63-42 102-42 28 0 55 8 78 23l114-114z m-304 125c-18 18-28 42-28 68 0 25 10 49 28 67 18 19 42 28 68 28 26 0 50-9 68-28 18-18 28-42 28-67 0-26-10-50-28-68-18-18-42-28-68-28-26 0-50 10-68 28z"/>
<glyph glyph-name="down-arrow" unicode="&#99;" d="M0 512l0-512 512 0 0 512z m256-407l-139 139 39 39 71-75 0 191 58 0 0-190 71 74 39-39z"/>
<glyph glyph-name="download" unicode="&#100;" d="M0 512l0-512 512 0 0 512z m394-444l-276 0 0 54 276 0z m-138 87l-139 139 39 39 71-75 0 183 58 0 0-183 71 75 39-39z"/>
<glyph glyph-name="left-arrow" unicode="&#101;" d="M512 0l0 512-512 0 0-512z m-202 418l42-42-125-124 125-125-42-41-124 124-42 42z"/>
<glyph glyph-name="search" unicode="&#106;" d="M215 385c-22 0-44-9-60-25-16-16-25-38-25-60 0-23 9-44 25-60 16-16 38-25 60-25 23 0 44 9 60 25 16 16 25 37 25 60 0 22-9 44-25 60-16 16-37 25-60 25z m-215 127l0-512 512 0 0 512z m385-421l-101 101c-20-13-44-20-69-20-34 0-66 13-90 37-24 25-38 57-38 91 0 34 14 66 38 90 24 24 56 38 90 38 34 0 66-14 91-38 24-24 37-56 37-90 0-25-7-49-20-69l101-101z"/>
<glyph glyph-name="plus" unicode="&#103;" d="M0 512l0-512 512 0 0 512z m407-292l-115 0 0-115-72 0 0 115-115 0 0 72 115 0 0 115 72 0 0-115 115 0z"/>
<glyph glyph-name="x" unicode="&#109;" d="M447 395l-55 55-137-136-137 136-56-55 137-137-137-137 56-56 137 137 137-137 55 56-136 137z"/>
<glyph glyph-name="check" unicode="&#110;" d="M444 444l-259-259-119 119-56-55 175-176 0 0 315 315z"/>
<glyph glyph-name="close" unicode="&#120;" d="M0 512l0-512 512 0 0 512z m399-357l-42-42-101 102-101-102-42 42 102 101-102 101 42 42 101-102 101 102 42-42-102-101z"/>
<glyph glyph-name="link" unicode="&#112;" d="M32 480l0-448 448 0 0 448z m307-298l-81-81c-10-10-22-15-35-15-14 0-26 5-36 15 0 0 0 0 0 0l-52 52c-19 19-19 51 0 70l11 11 27-26-11-11c-5-5-5-13 0-17l52-52c0 0 0 0 0 0 2-3 5-4 9-4 3 0 6 1 8 4l81 80c5 5 5 13 0 17l-43 43 27 27 43-43c19-19 19-51 0-70z m38 106l-11-11-27 27 11 11c2 2 4 5 4 9 0 3-2 6-4 8l-52 52c-5 5-12 5-17 0l-81-80c-2-3-3-6-3-9 0-3 1-6 3-9l43-42-27-27-43 43c-9 9-14 22-14 35 0 13 5 26 14 35l81 81c20 19 51 19 71 0l52-52c9-9 14-22 14-35 0-14-5-26-14-36z"/>
<glyph glyph-name="menu" unicode="&#108;" d="M32 480l0-448 448 0 0 448z m340-347l-242 0 0 48 242 0z m0 97l-242 0 0 48 242 0z m0 97l-242 0 0 48 242 0z"/>
<glyph glyph-name="menu-nobkgrnd" unicode="&#111;" d="M101 411l0-61 310 0 0 61z m0-310l310 0 0 61-310 0z m0 124l310 0 0 62-310 0z"/>
<glyph glyph-name="facebook" unicode="&#121;" d="M319 360l63 0 0 84-71 0c-55 0-97-42-97-84l0-42-63 0 0-84 63 0 0-168 84 0 0 168 63 0 0 84-63 0 0 21c0 13 14 21 21 21"/>
<glyph glyph-name="flickr" unicode="&#113;" d="M235 256c0-46-38-83-84-83-46 0-83 37-83 83 0 46 37 83 83 83 46 0 84-37 84-83z m209 0c0-46-37-83-83-83-46 0-84 37-84 83 0 46 38 83 84 83 46 0 83-37 83-83z"/>
<glyph glyph-name="googleplus" unicode="&#114;" d="M439 288l-58 0 0 58c0 4-3 8-8 8l-16 0c-5 0-8-4-8-8l0-58-58 0c-4 0-8-3-8-8l0-16c0-5 4-8 8-8l58 0 0-58c0-4 3-8 8-8l16 0c5 0 8 4 8 8l0 58 58 0c4 0 8 3 8 8l0 16c0 5-4 8-8 8z m-194-50c-12 8-23 21-23 25 0 7 1 10 17 22 20 16 31 37 31 59 0 21-6 38-16 51l8 0c1 0 3 0 4 1l23 17c3 2 4 5 3 9-1 3-4 5-8 5l-101 0c-11 0-22-2-33-6-37-12-63-44-63-76 0-46 36-80 83-81-1-4-2-7-2-11 0-7 2-14 6-20 0 0-1 0-1 0-45 0-86-22-102-55-4-9-6-17-6-26 0-8 2-16 7-24 9-17 30-31 58-38 15-3 31-5 47-5 14 0 28 2 41 5 40 12 66 42 66 76 0 32-10 52-39 72z m-127-75c0 24 30 45 64 45l1 0c8 0 15-2 22-4 2-1 5-3 7-4 16-11 26-18 29-30 1-3 1-6 1-9 0-29-22-44-65-44-33 0-59 20-59 46z m31 225c5 6 12 9 20 9l1 0c23-1 44-26 48-56 2-16-2-32-10-42-5-6-12-9-21-9 0 0 0 0 0 0l0 0c-22 1-44 26-48 56-2 17 2 32 10 42z"/>
<glyph glyph-name="linkin" unicode="&#116;" d="M270 273l0 1c0 0 0 0 0-1z m146 171l-320 0c-15 0-28-12-28-27l0-324c0-15 13-27 28-27l320 0c15 0 28 12 28 27l0 324c0 15-13 27-28 27z m-234-316l-57 0 0 170 57 0z m-28 193l-1 0c-19 0-31 14-31 30 0 17 13 29 32 29 20 0 32-12 32-29 0-16-12-30-32-30z m232-193l-56 0 0 91c0 23-8 38-29 38-16 0-25-10-29-20-1-4-2-9-2-14l0-95-57 0c0 0 1 154 0 170l57 0 0-24c8 12 21 28 51 28 37 0 65-24 65-77l0-97z"/>
<glyph glyph-name="pinterest" unicode="&#117;" d="M265 444c-103 0-155-74-155-135 0-38 14-71 44-83 5-2 10 0 11 5 1 4 4 14 5 18 1 5 1 7-3 12-9 10-15 23-15 42 0 55 41 104 107 104 58 0 90-36 90-83 0-63-28-115-69-115-22 0-39 19-34 41 7 28 19 57 19 77 0 18-9 33-29 33-23 0-42-24-42-56 0-21 7-35 7-35 0 0-23-100-28-117-8-35-1-78 0-83 0-2 3-3 5-1 2 3 30 37 39 71 3 10 15 59 15 59 8-14 30-27 53-27 70 0 117 64 117 149 0 64-55 124-137 124z"/>
<glyph glyph-name="twitter" unicode="&#118;" d="M479 396c-16-7-34-12-52-14 0 0 0 0 0 1 19 11 34 29 41 50-6-3-32-18-59-23-17 18-41 30-69 30-58 0-94-47-94-93 0-4 2-19 2-20-77 2-146 39-191 97-32-58 2-108 25-126-14 0-26 3-38 8 3-45 35-81 77-90-17-5-37-2-45 1 13-38 47-65 88-67-63-46-131-41-132-41 40-24 87-38 136-38 183 1 276 163 265 279 20 9 36 26 46 46z"/>
<glyph glyph-name="youtube" unicode="&#119;" d="M376 265l-240 0c-38 0-69-31-69-69l0-56c0-38 31-69 69-69l240 0c38 0 69 31 69 69l0 56c0 38-31 69-69 69z m-189-43l-23 0 0-111-21 0 0 111-22 0 0 18 66 0 0-18z m62-111l-19 0 0 10c-3-3-7-6-11-8-3-2-7-3-11-3-4 0-7 1-10 4-2 3-3 7-3 13l0 79 19 0 0-73c0-2 0-4 1-5 1-1 2-1 4-1 2 0 3 0 5 2 3 1 5 3 6 5l0 72 19 0 0-95z m70 20c0-7-2-12-5-16-3-3-7-5-13-5-3 0-7 0-10 2-3 1-5 3-8 6l0-7-19 0 0 129 19 0 0-41c3 3 5 5 8 6 3 2 6 3 9 3 6 0 11-2 14-6 3-5 5-10 5-18l0-53z m66 25l-37 0 0-18c0-5 1-8 2-10 2-2 4-3 7-3 3 0 5 1 6 3 2 1 2 5 2 10l0 5 20 0 0-5c0-10-2-17-7-22-5-5-12-8-22-8-8 0-15 3-20 8-5 5-7 13-7 22l0 43c0 8 2 15 8 20 5 5 12 8 21 8 8 0 15-3 20-7 5-5 7-12 7-21l0-25z m-28 36c-3 0-5-1-7-2-1-2-2-5-2-9l0-10 17 0 0 10c0 4 0 7-2 9-1 1-3 2-6 2z m-66 0c-1 0-3 0-4 0-1-1-3-2-4-3l0-60c2-1 3-3 5-3 1-1 3-1 4-1 3 0 4 0 5 2 1 1 2 3 2 6l0 50c0 3-1 5-2 7-1 2-3 2-6 2z m-123 106l24 0 0 59 28 84-25 0-15-57-1 0-16 57-24 0 29-87z m85-3c10 0 17 3 23 8 5 5 8 12 8 21l0 54c0 8-3 15-8 20-6 5-13 8-22 8-10 0-18-3-24-7-5-5-8-12-8-20l0-54c0-9 3-17 8-22 6-5 13-8 23-8z m-9 85c0 2 1 4 2 5 2 2 4 3 7 3 3 0 5-1 7-3 1-1 2-3 2-5l0-57c0-3-1-6-2-7-2-2-4-3-7-3-3 0-5 1-7 3-1 1-2 4-2 7l0 57z m73-84c4 0 8 2 12 4 4 2 8 5 12 10l0-12 22 0 0 105-22 0 0-80c-2-2-4-4-6-5-3-2-5-3-6-3-2 0-4 1-5 2-1 1-1 3-1 5l0 81-21 0 0-88c0-6 1-11 3-14 3-3 7-5 12-5z"/>
<glyph glyph-name="email" unicode="&#122;" d="M438 399l-364 0 182-163z m-262-144l-102 91 0-186z m160 0l102-93 0 184z m-80-71l-51 45-123-116 351 0-127 115z"/>
<glyph glyph-name="right-arrow-1" unicode="&#104;" d="M0 512l0-512 512 0 0 512z m202-418l-42 42 125 124-125 125 42 41 124-124 42-42z"/>
<glyph glyph-name="side-arrow-thin-3" unicode="&#97;" d="M263 359l-10-10 89-89-214 0 0-14 214 0-89-89 10-10 106 106z"/>
<glyph glyph-name="side-arrow-bold" unicode="&#65;" d="M128 278l167 0-66 62 34 35 122-122-122-122-34 34 66 63-167 0 0 50z"/>
<glyph glyph-name="side-arrow-roman" unicode="&#66;" d="M264 360l-13-13 86-85-209 0 0-18 209 0-86-86 13-12 107 107z"/>
<glyph glyph-name="mob-nav-arrow-1" unicode="&#67;" d="M223 158l-12 12 86 86-92 92 12 13 105-105z"/>
<glyph glyph-name="mob-nav-menu-1" unicode="&#68;" d="M128 177l234 0 0-25-234 0z m0 183l234 0 0-25-234 0z m0-91l234 0 0-25-234 0z"/>
<glyph glyph-name="video-nobkgrnd" unicode="&#69;" d="M437 373l-107-107 0 110-246 0 0-246 246 0 0 110 107-107z"/>
<glyph glyph-name="rss-1" unicode="&#70;" d="M117 168c-27 0-50-23-50-50 0-28 23-50 50-50 28 0 51 22 51 50 0 27-23 50-51 50m-50 148l0-72c47 0 92-18 125-52 33-33 52-77 52-125l72 0c0 138-111 249-249 249m0 129l0-73c168 0 305-137 305-305l73 0c0 208-170 378-378 378"/>
<glyph glyph-name="down-bracket-nobkgrnd" unicode="&#71;" d="M251 153l-168 168 22 21 146-146 156 156 22-21z"/>
<glyph glyph-name="up-bracket-nobkgrnd" unicode="&#72;" d="M261 363l168-168-22-21-146 146-156-156-22 21z"/>
<glyph glyph-name="play-icon" unicode="&#73;" d="M123 458l310-190-310-189z"/>
<glyph glyph-name="up-arrow-light" unicode="&#74;" d="M142 267l10-10 89 89 0-214 14 0 0 214 89-89 10 10-106 106z"/>
<glyph glyph-name="apply" unicode="&#75;" d="M354 112l-284 0 0 285 271 0 39 37-348 0 0-360 360 0 0 170-38-37z m-194 216l-36-35 126-125 230 230-35 35-195-195z"/>
<glyph glyph-name="deadlines" unicode="&#76;" d="M435 75l-358 0 0 338 103 0 0 42 35 0 0-42 81 0 0 42 36 0 0-42 102 0 0-338z m-322 36l286 0 0 266-286 0z m223 51l-33 0 0 110c-10-9-23-16-37-20l-2-1 0 31 1 0c8 2 16 7 25 14 9 7 15 15 18 24l1 1 27 0 0-159z m-109 0l-33 0 0 110c-11-9-23-16-37-20l-2-1 0 31 1 0c8 2 16 7 25 14 9 7 15 15 18 24l0 1 27 0 0-159z"/>
<glyph glyph-name="download-nobkgrnd" unicode="&#77;" d="M101 114l0-38 310 0 0 38z m260 158l-27 27-59-59 0 194-38 0 0-194-59 59-27-27 105-105z"/>
<glyph glyph-name="info" unicode="&#78;" d="M443 75l-87 0 0 38 49 0 0 283-298 0 0-283 49 0 0-38-87 0 0 359 374 0 0-359z m-216 227c8 7 18 10 31 10 13 0 23-3 30-10 7-7 11-15 11-24 0-7-2-13-6-18-3-4-11-11-25-23-14-11-24-22-28-31-5-9-7-21-7-35 0-1 0-5 0-11l44 0c-1 13 0 22 3 27 2 6 9 12 19 21 20 16 33 30 39 39 6 9 9 19 9 30 0 19-9 36-25 51-16 14-38 22-66 22-26 0-48-8-64-22-16-14-25-32-26-52l44-6c3 14 9 24 17 32z m6-190l48 0 0-37-48 0z"/>
<glyph glyph-name="pause-01" unicode="&#79;" d="M0 512l205 0 0-512-205 0z m307 0l205 0 0-512-205 0z"/>
<glyph glyph-name="photos" unicode="&#80;" d="M458 392l0-230-363 0 0 237 362 0m21 21l-403 0 0-281 404 0z m-358-231l95 162 61-88 42 44 91-118z m283 151c0-16-13-30-29-30-17 0-30 14-30 30 0 16 13 30 30 30 16 0 29-14 29-30z m-380 34l37 0 0-22-37 0z m0 0l21 0 0-280-21 0z m0-259l427 0 0-22-427 0z m405 13l22 0 0-34-22 0z"/>
<glyph glyph-name="minus" unicode="&#81;" d="M72 307l368 0 0-82-368 0z"/>
<glyph glyph-name="plus-1" unicode="&#82;" d="M440 297l-143 0 0 143-82 0 0-143-143 0 0-82 143 0 0-143 82 0 0 143 143 0z"/>
<glyph glyph-name="tumblr" unicode="&#83;" d="M317 135c-31 0-37 22-37 37l0 110 71 0 0 64-71 0 0 95-56 0c0 0-2-1-2-3-3-29-18-80-75-100l0-55 44 0 0-115c0-42 26-101 109-100 28 1 59 12 66 22l-19 54c-6-5-20-8-30-9z"/>
<glyph glyph-name="side-back-arrow-bold" unicode="&#84;" d="M385 278l-167 0 66 62-34 35-122-122 122-122 34 34-66 63 167 0 0 50z"/>
<glyph glyph-name="side-back-arrow-light" unicode="&#85;" d="M234 359l10-10-89-89 214 0 0-14-214 0 89-89-10-10-106 106z"/>
<glyph glyph-name="side-back-arrow-roman" unicode="&#86;" d="M235 360l13-13-86-85 209 0 0-18-209 0 86-86-13-12-107 107z"/>
<glyph glyph-name="expand-01" unicode="&#87;" d="M416 480l-112 0 0-48 128 0 0-128 48 0 0 176z m-384 0l0-176 48 0 0 128 128 0 0 48z m48-272l-48 0 0-176 176 0 0 48-128 0z m352-128l-128 0 0-48 176 0 0 176-48 0z"/>
<glyph glyph-name="360-vid" unicode="&#88;" d="M82 368c36 44 90 70 147 70 57 0 111-26 146-70l34 0c-40 60-108 97-181 97-72 0-140-37-180-97z m270-262c-70-61-176-61-246 0l-39 0c41-46 100-73 162-73 62 0 121 27 162 73z m-311 86c0-6 1-25 24-25 15 0 24 11 24 26 0 27-27 27-46 27l0 31c18 1 46 2 46 28 0 15-11 22-23 22-6 0-12-2-17-6-4-5-6-11-6-17l-41 0c1 9 15 20 11 32 12 15 32 20 52 20 47 0 62-30 62-50 0-31-27-40-35-42 8-3 15-6 22-12 10-8 15-20 15-33 0-31-29-55-67-55-13 0-33 3-45 13-18 13-17 35-17 42l41 0z m200 89c-1 13-10 18-20 18-26 0-27-32-27-52 9 10 22 16 36 15 26 0 53-18 53-58 0-21-5-36-19-49-13-11-27-17-48-17-64 0-64 62-64 84 0 37 5 76 31 95 16 12 35 13 42 13 28 0 55-15 56-49z m3-80c0 20-11 32-24 32-6 0-27-4-27-33 0-23 13-32 26-32 11 0 25 7 25 33z m121 129c26 0 41-14 48-25 10-14 17-32 17-67 0-43-10-100-66-100-47 0-64 46-64 96 0 25 5 96 65 96z m20-53c-1 5-5 22-20 22-11 0-17-11-18-16-6-19-6-47-6-52 0-32 4-61 25-61 21 0 24 36 24 61 0 12-1 34-5 46z m91 41c24 0 36-14 36-33 0-18-12-34-36-34-26 0-35 18-35 34 0 20 13 33 35 33z m0-54c11 0 15 6 15 21 0 13-4 21-15 21-13 0-15-13-15-22 0-13 6-20 15-20z"/>
<glyph glyph-name="instagram" unicode="&#115;" d="M256 410c50 0 57-1 76-1 19-1 29-4 35-7 9-3 15-7 22-14 7-7 11-13 14-22 3-7 6-16 7-35 1-20 1-26 1-76 0-50-1-57-1-76-1-19-4-29-7-35-3-9-7-15-14-22-7-7-13-11-22-14-6-3-16-6-35-7-20-1-26-1-76-1-50 0-57 1-76 1-19 1-29 4-35 7-9 3-15 7-22 14-7 7-11 13-14 22-3 6-6 16-7 35-1 20-1 26-1 76 0 50 1 56 1 76 1 19 4 28 7 35 3 9 7 15 14 22 7 7 13 11 22 14 6 3 16 6 35 7 19 1 26 1 76 1m0 34c-51 0-58-1-78-1-20-1-34-5-46-9-12-5-23-12-33-22-11-11-17-21-22-33-4-12-8-26-9-46-1-20-1-27-1-78 0-51 1-58 1-78 1-20 5-34 9-46 5-12 12-23 22-33 11-11 21-17 33-22 12-5 26-8 46-9 20-1 27-1 78-1 51 0 58 0 78 1 20 1 34 4 46 9 12 5 23 11 33 22 11 10 17 21 22 33 4 12 8 26 9 46 1 20 1 27 1 78 0 51-1 58-1 78-1 20-5 34-9 46-5 12-12 23-22 33-11 11-21 17-33 22-12 4-26 8-46 9-20 0-27 1-78 1z m0-92c-54 0-97-43-97-97 0-54 43-97 97-97 54 0 97 43 97 97 0 54-43 97-97 97z m0-160c-35 0-63 28-63 63 0 35 28 63 63 63 35 0 63-28 63-63 0-35-28-63-63-63z m123 164c0-13-10-23-22-23-13 0-23 10-23 23 0 12 10 22 23 22 12 0 22-10 22-22z"/>
<glyph glyph-name="snapchat" unicode="&#89;" d="M258 79c-1 0-1 0-2 0-1 0-2 0-2 0-23 0-37 10-51 19-9 7-18 14-29 15-5 1-10 2-15 2-9 0-16-2-21-3-4 0-6-1-8-1-2 0-5 1-6 4-1 3-1 6-2 9-1 7-3 12-6 12-35 6-45 13-48 18 0 1 0 2 0 2 0 3 1 4 3 5 54 9 78 65 79 67 0 0 0 0 0 1 4 6 4 12 2 17-4 9-16 13-24 15-2 1-4 1-5 2-16 7-18 13-17 16 1 6 8 10 15 10 2 0 3 0 4-1 7-3 14-5 20-5 8 0 11 4 11 4 0 3 0 7 0 11-2 26-4 58 4 76 25 55 77 59 92 59 0 0 7 0 7 0l1 0c15 0 67-4 92-59 8-18 6-50 4-76l0-1c0-3 0-7 0-10 0 0 3-4 10-4 6 1 12 2 19 5 2 1 4 1 5 1 3 0 5 0 7-1 5-2 9-6 9-10 0-4-3-10-17-15-1-1-3-1-5-2-9-2-21-6-25-15-2-5-1-11 2-17 0 0 0 0 0-1 1-2 26-58 80-67 2 0 4-2 3-4 0-1 0-2 0-2-2-6-13-13-48-18-3-1-4-5-6-13-1-2-1-5-2-8-1-3-3-4-5-4l0 0c-2 0-5 0-8 1-6 1-13 2-22 2-5 0-10 0-15-1-11-2-19-8-29-15-14-10-28-20-51-20z m2 351c14 0 64-4 88-57 8-18 6-49 4-75 0-4 0-8-1-11l0-2 1-1c1 0 5-5 14-5 6 0 13 2 20 5 1 1 2 1 4 1 1 0 3 0 5-1l0 0c4-1 6-4 6-6 0-1-1-6-14-11-2-1-3-1-5-2-9-3-22-7-27-18-2-6-2-12 2-20 2-4 27-60 84-69 0-1 0-1-1-2-1-2-7-10-45-16-6-1-7-7-9-15 0-3-1-6-2-8 0-1 0-1-1-1 0 0 0 0 0 0-2 0-4 0-7 1-6 1-13 2-22 2-6 0-11 0-16-1-12-2-21-9-31-16-14-10-28-19-49-19-1 0-1 0-2 0l-1 0c0 0-1 0-1 0-21 0-35 10-49 19-10 7-19 14-31 16-5 1-10 1-16 1-9 0-16-1-22-2-3-1-5-1-7-1-1 0-1 0-2 1 0 2-1 5-2 8-2 8-3 14-9 15-37 6-43 14-45 16 0 1 0 1 0 2 57 9 82 65 83 69 4 8 5 15 2 20-4 11-17 15-26 18-2 1-4 1-5 2-12 4-15 9-14 11 0 4 6 7 11 7 1 0 2 0 2-1 8-3 15-5 21-5 10 0 15 5 15 5l1 1 0 2c0 3 0 7-1 11-1 26-3 57 5 75 23 52 73 57 88 57 0 0 7 0 7 0-1-1 0 0 0 0m0 7c-1 0-1 0-2 0 0 0-6 0-6 0-16 0-70-4-96-61-8-19-6-52-5-78 1-3 1-6 1-9-1-1-3-2-7-2-5 0-11 1-18 5-2 0-4 1-6 1-8 0-18-5-19-13-1-6 1-13 19-20 2-1 4-2 6-2 7-3 18-6 22-13 1-4 1-9-2-15 0 0 0 0-1 0 0-2-24-56-76-65-4-1-7-4-7-8 0-1 0-3 1-4 4-9 20-16 50-20 2-2 3-6 3-10 1-2 2-6 2-9 2-3 4-6 10-6 2 0 5 0 9 1 5 1 12 2 20 2 5 0 10 0 15-1 9-2 18-7 28-14 13-10 29-21 53-21 0 0 1 0 1 0 1 0 2 0 3 0 24 0 39 11 53 21 10 7 18 13 28 14 5 1 10 1 14 1 9 0 15-1 21-2 4-1 6-1 9-1l1 0c4 0 7 3 9 7 1 3 1 6 2 9 0 3 1 8 3 9 30 5 46 11 50 21 1 1 1 2 1 3 0 4-2 8-7 8-52 9-76 63-77 65 0 0 0 0 0 0-3 6-4 10-2 14 3 7 14 11 22 13 2 1 4 2 5 2 14 6 20 12 20 19 0 6-5 11-12 14-2 1-5 1-8 1-2 0-5 0-7-1-6-3-12-5-17-5-3 0-5 1-7 2 0 2 1 5 1 8l0 1c2 26 3 59-5 78-25 57-79 61-95 61z"/>
</font>
</defs>
</svg>
